<?xml version="1.0" standalone="no"?>
<!DOCTYPE svg PUBLIC "-//W3C//DTD SVG 20010904//EN"
 "http://www.w3.org/TR/2001/REC-SVG-20010904/DTD/svg10.dtd">
<svg version="1.0" xmlns="http://www.w3.org/2000/svg"
 width="300.000000pt" height="300.000000pt" viewBox="0 0 300.000000 300.000000"
 preserveAspectRatio="xMidYMid meet">
<metadata>
Created by potrace 1.11, written by Peter Selinger 2001-2013
</metadata>
<g transform="translate(0.000000,300.000000) scale(0.100000,-0.100000)"
fill="#000000" stroke="none">
<path d="M1412 2360 c-305 -41 -557 -263 -638 -560 -27 -99 -25 -291 4 -393
53 -186 163 -334 329 -441 37 -24 240 -130 450 -235 l382 -191 132 163 c73 89
136 167 141 174 7 9 -110 72 -441 238 -483 241 -505 255 -552 351 -31 65 -38
172 -14 243 26 80 83 144 162 183 163 80 347 18 430 -145 38 -74 43 -171 13
-252 -39 -106 -164 -205 -257 -205 -13 0 -23 -3 -23 -8 0 -9 445 -232 464
-232 22 0 131 123 175 197 131 223 129 498 -4 740 -25 44 -70 100 -129 158
-77 77 -106 98 -186 137 -144 70 -295 97 -438 78z"/>
</g>
</svg>
