<svg id="Layer_1" data-name="Layer 1" xmlns="http://www.w3.org/2000/svg" viewBox="0 0 1024 364">
	<defs>
		<style>.cls-1{fill:#3a4454;}</style>
	</defs>
	<title>MAQE_logo_20151222</title>
	<g id="LIGHTS_ON" data-name="LIGHTS ON">
		<polygon id="_Path_" data-name="&lt;Path&gt;" class="cls-1" points="623.33 203.25 623.34 203.26 623.33 203.25 623.33 203.25"/>
		<g id="_Group_" data-name="&lt;Group&gt;">
			<polygon class="cls-1" points="225.07 55.49 179.84 117.78 212.53 158.08 225.07 142.62 225.07 265.48 288.02 265.48 288.04 55.49 225.07 55.49"/>
		</g>
		<polygon class="cls-1" points="197.22 176.95 208.15 163.48 122.95 55.8 60.72 55.8 60.7 265.79 122.93 265.79 122.94 142.62 149.05 176.95 197.22 176.95"/>
		<g id="_Group_2" data-name="&lt;Group&gt;">
			<polygon class="cls-1" points="459.38 55.85 394.56 55.85 311.92 265.83 382.19 265.84 415.65 223.76 402.9 208.34 426.7 140.78 450.93 208.31 411.94 208.31 462.13 265.84 540.79 265.85 459.38 55.85"/>
		</g>
		<g id="_Group_3" data-name="&lt;Group&gt;">
			<polygon class="cls-1" points="881.51 160.1 843.94 113.84 963.3 113.78 963.3 56.08 775.41 56.07 775.4 113.88 847.2 202.4 881.51 160.1"/>
		</g>
		<g id="_Group_4" data-name="&lt;Group&gt;">
			<polygon class="cls-1" points="775.39 265.66 963.28 265.67 963.3 207.79 842.82 207.79 809.07 166.18 775.4 207.96 775.4 207.96 775.4 207.96 775.39 265.66 775.39 265.66 775.39 265.66 775.39 265.66"/>
		</g>
		<path class="cls-1" d="M625.06,201.5l.06-.12a45.9,45.9,0,1,1,24.57,5.07l64.62,32.05c22.74-19.15,37.21-45.77,37.21-77.91A105.08,105.08,0,0,0,648.1,55.51H648l-1.62,0a105.09,105.09,0,0,0-79.67,173.62l0,0A111.75,111.75,0,0,0,599,254.71l107.53,53.8L745.09,261Z"/>
	</g>
</svg>
